<svg width="1440" height="1024" viewBox="0 0 1440 1024" fill="none" xmlns="http://www.w3.org/2000/svg">
<g clip-path="url(#clip0)">
<rect width="1440" height="1024" fill="white"/>
<path fill-rule="evenodd" clip-rule="evenodd" d="M825.264 -220.664C906.547 -288.609 979.149 -384.466 1078.71 -398.2C1177.76 -411.864 1255.75 -346.447 1326.12 -289.756C1386.97 -240.739 1419.28 -170.701 1450.74 -98.4856C1484.13 -21.8321 1548.2 55.0235 1514.07 141.664C1479.95 228.261 1368.22 257.802 1288.8 312.576C1222.19 358.517 1163.1 415.731 1087.41 435.92C1005.49 457.769 925.217 450.939 850.015 429.611C759.024 403.804 658.87 379.691 612.597 301.256C563.346 217.773 557.346 104.154 598.47 3.22839C638.116 -94.0684 741.657 -150.778 825.264 -220.664Z" fill="#EFFCF5"/>
<path fill-rule="evenodd" clip-rule="evenodd" d="M267.325 -105.789C379.447 -104.296 504.017 -122.301 593.092 -82.2672C681.717 -42.4353 698.592 30.8088 715.44 95.6127C730.007 151.644 707.18 205.597 682.163 260.34C655.608 318.447 653.418 391.327 565.982 422.651C478.589 453.959 368.811 416.798 267.325 408.955C182.205 402.377 95.2652 405.593 20.7752 380.516C-59.8418 353.376 -119.23 311.252 -164.496 263.582C-219.267 205.902 -282.533 144.775 -265.03 79.5322C-246.4 10.0912 -172.289 -55.248 -69.3454 -91.084C29.8967 -125.632 151.998 -107.324 267.325 -105.789Z" fill="#43946C"/>
</g>
<defs>
<clipPath id="clip0">
<rect width="1440" height="1024" fill="white"/>
</clipPath>
</defs>
</svg>
