<svg width="1440" height="1024" viewBox="0 0 1440 1024" fill="none" xmlns="http://www.w3.org/2000/svg">
<g clip-path="url(#clip0)">
<rect width="1440" height="1024" fill="white"/>
<path fill-rule="evenodd" clip-rule="evenodd" d="M825.264 -220.664C906.547 -288.609 979.149 -384.466 1078.71 -398.2C1177.76 -411.864 1255.75 -346.447 1326.12 -289.756C1386.97 -240.739 1419.28 -170.701 1450.74 -98.4856C1484.13 -21.8321 1548.2 55.0235 1514.07 141.664C1479.95 228.261 1368.22 257.802 1288.8 312.576C1222.19 358.517 1163.1 415.731 1087.41 435.92C1005.49 457.769 925.217 450.939 850.015 429.611C759.024 403.804 658.87 379.691 612.597 301.256C563.346 217.773 557.346 104.154 598.47 3.22839C638.116 -94.0684 741.657 -150.778 825.264 -220.664Z" fill="#EFFCF5"/>
<path fill-rule="evenodd" clip-rule="evenodd" d="M336.114 -54.6182C446.306 -53.085 568.734 -71.5833 656.275 -30.4518C743.376 10.4723 759.96 85.7249 776.518 152.306C790.834 209.874 768.401 265.306 743.814 321.55C717.715 381.251 715.564 456.129 629.632 488.312C543.743 520.479 435.854 482.299 336.114 474.241C252.458 467.482 167.015 470.787 93.8064 445.022C14.5766 417.138 -43.7894 373.859 -88.2771 324.881C-142.105 265.62 -204.283 202.816 -187.081 135.784C-168.772 64.4392 -95.9354 -2.69171 5.23649 -39.5105C102.771 -75.0055 222.772 -56.1953 336.114 -54.6182Z" fill="#43946C"/>
</g>
<defs>
<clipPath id="clip0">
<rect width="1440" height="1024" fill="white"/>
</clipPath>
</defs>
</svg>
