<svg width="1440" height="1024" viewBox="0 0 1440 1024" fill="none" xmlns="http://www.w3.org/2000/svg">
<g clip-path="url(#clip0)">
<rect width="1440" height="1024" fill="white"/>
<path fill-rule="evenodd" clip-rule="evenodd" d="M825.264 -220.664C906.547 -288.609 979.149 -384.466 1078.71 -398.2C1177.76 -411.864 1255.75 -346.447 1326.12 -289.756C1386.97 -240.739 1419.28 -170.701 1450.74 -98.4856C1484.13 -21.8321 1548.2 55.0235 1514.07 141.664C1479.95 228.261 1368.22 257.802 1288.8 312.576C1222.19 358.517 1163.1 415.731 1087.41 435.92C1005.49 457.769 925.217 450.939 850.015 429.611C759.024 403.804 658.87 379.691 612.597 301.256C563.346 217.773 557.346 104.154 598.47 3.22839C638.116 -94.0684 741.657 -150.778 825.264 -220.664Z" fill="#EFFCF5"/>
<path fill-rule="evenodd" clip-rule="evenodd" d="M360.593 -78.4812C455.805 -77.1553 561.59 -93.1521 637.231 -57.5829C712.49 -22.193 726.82 42.8831 741.127 100.46C753.498 150.243 734.114 198.18 712.869 246.818C690.318 298.445 688.459 363.197 614.21 391.028C539.996 418.845 446.774 385.828 360.593 378.86C288.31 373.015 214.481 375.873 151.225 353.592C82.766 329.479 32.3344 292.052 -6.10553 249.698C-52.6163 198.451 -106.342 144.14 -91.4779 86.1731C-75.6576 24.4759 -12.7227 -33.5768 74.6956 -65.4165C158.971 -96.1115 262.659 -79.845 360.593 -78.4812Z" fill="#43946C"/>
</g>
<defs>
<clipPath id="clip0">
<rect width="1440" height="1024" fill="white"/>
</clipPath>
</defs>
</svg>
